<?xml version="1.0" encoding="UTF-8"?>
<svg id="Layer_1" xmlns="http://www.w3.org/2000/svg" version="1.1" viewBox="0 0 90 90">
  <!-- Generator: Adobe Illustrator 29.0.0, SVG Export Plug-In . SVG Version: 2.1.0 Build 186)  -->
  <defs>
    <style>
      .st0 {
        fill: #231f20;
      }

      .st1 {
        fill: #fff;
      }
    </style>
  </defs>
  <circle class="st0" cx="45" cy="45" r="45"/>
  <path class="st1" d="M32.6,43.6c.2,0,.4,0,.6,0,.2,0,.3,0,.5.2l.4-1c-.5-.2-.9-.3-1.4-.3s-.9,0-1.2.3c-.3.2-.6.5-.8.8s-.3.8-.3,1.3c0,.8.2,1.4.6,1.8.4.4.9.6,1.6.6s.9,0,1.3-.3v-1.1c-.2,0-.4.2-.6.2-.2,0-.4,0-.6,0-.7,0-1-.4-1-1.3s.1-.8.3-1c0-.3.3-.4.6-.4Z"/>
  <path class="st1" d="M38.2,46.3c-.2,0-.5,0-.7,0-.3,0-.5-.2-.8-.3v1.1c.2,0,.4.2.7.2s.5,0,.8,0,.7,0,1-.2c.3,0,.5-.3.6-.5s.2-.5.2-.8,0-.6-.2-.8c-.2-.2-.4-.4-.8-.6-.4-.2-.7-.3-.8-.4-.2,0-.2,0-.2-.2s0-.2,0-.2c0,0,.2,0,.4,0,.3,0,.7,0,1.1.3l.4-1c-.5-.2-1-.3-1.5-.3s-1,0-1.3.4c-.3.2-.5.6-.5,1s0,.4,0,.6c0,.2.2.3.3.4.2,0,.4.3.7.4.3.2.5.3.6.3s0,0,.2,0c0,0,0,0,0,.2s0,.2,0,.3-.2,0-.4,0Z"/>
  <path class="st1" d="M44.1,46.3c-.2,0-.5,0-.7,0-.3,0-.5-.2-.8-.3v1.1c.2,0,.4.2.7.2s.5,0,.8,0,.7,0,1-.2c.3,0,.5-.3.6-.5s.2-.5.2-.8,0-.6-.2-.8c-.2-.2-.4-.4-.8-.6-.4-.2-.7-.3-.8-.4,0,0,0-.2,0-.2,0,0,0-.2,0-.2,0,0,.2,0,.4,0,.3,0,.7,0,1.1.3l.4-1c-.5-.2-1-.3-1.5-.3s-1,0-1.3.4c-.3.2-.5.6-.5,1s0,.4,0,.6c0,.2.2.3.3.4.2,0,.4.3.7.4.3.2.5.3.6.3s0,0,.2,0c0,0,0,0,0,.2s0,.2,0,.3-.3,0-.5,0Z"/>
  <path class="st1" d="M52.8,44.8c0-.7-.2-1.3-.6-1.7-.4-.4-1-.6-1.7-.6h-1.6v4.7h1.5c.8,0,1.4-.2,1.8-.6.4-.4.6-1,.6-1.8ZM51.2,45.9c-.2.2-.5.3-.8.3h-.3v-2.6h.4c.3,0,.6,0,.8.3s.3.5.3,1c-.1.4-.2.8-.4,1Z"/>
  <path class="st1" d="M58.5,46.4l.2.9h1.4l-1.5-4.7h-1.7l-1.5,4.7h1.4l.2-.9h1.5ZM57.6,43.9c0-.2,0-.4,0-.5,0,0,0,.3,0,.6,0,.3,0,.5.2.7l.2.8h-1c.2-.9.3-1.4.4-1.6Z"/>
  <polygon class="st1" points="51.2 39.2 46.4 34.4 41.7 39.2 39 39.2 49 29.2 38.5 29.2 28.4 39.2 24.6 39.2 24.6 39.9 65.8 39.9 65.8 39.2 51.2 39.2"/>
  <polygon class="st1" points="24.6 50.6 39.1 50.6 43.8 55.3 48.6 50.6 51.2 50.6 41.2 60.6 51.7 60.6 57 55.4 61.7 50.6 65.8 50.6 65.8 49.9 24.6 49.9 24.6 50.6"/>
  <g>
    <path class="st1" d="M26.2,74.1l.2-4.5-2.2,2.9-.9-.7,3.5-4.5,1,.7v4.4c-.1,0,2-2.8,2-2.8l.9.7-3.5,4.5-.9-.7Z"/>
    <path class="st1" d="M30.6,73.7c.7-1.6,2.3-2.2,3.8-1.6,1.5.7,2.2,2.3,1.5,3.8s-2.3,2.2-3.8,1.5c-1.5-.7-2.2-2.3-1.5-3.8ZM34.8,75.5c.4-1,.1-2-.8-2.4s-1.9,0-2.3,1c-.4,1-.1,2,.8,2.4.9.4,1.9,0,2.3-1Z"/>
    <path class="st1" d="M42.4,80l.5-3.9-2.1,3.7h-.5c0,0-1-4.2-1-4.2l-.5,3.9-1.2-.2.8-5.6,1.6.2.9,3.6,1.8-3.2,1.6.2-.8,5.6-1.2-.2Z"/>
    <path class="st1" d="M46.5,80l-.4-5.7h1.2c0,0,.4,5.6.4,5.6h-1.2Z"/>
    <path class="st1" d="M54.3,78.8l-3.5-2.9.9,3.6-1.1.3-1.4-5.5,1.2-.3,3.4,2.8-.9-3.5,1.1-.3,1.4,5.5-1.1.3Z"/>
    <path class="st1" d="M58.2,77.4l-2.6-5,3.5-1.8.5.9-2.4,1.2.5,1.1,2.4-1.2.5.9-2.4,1.2.6,1.1,2.4-1.2.5.9-3.5,1.8Z"/>
    <path class="st1" d="M64,74.1l-3.5-4.4,3.1-2.4.7.8-2.1,1.7.7.9,2.1-1.7.7.8-2.1,1.7.8,1,2.1-1.7.7.8-3.1,2.4Z"/>
  </g>
  <g>
    <path class="st1" d="M19,32.5l-4-.6,3.2,2.3-.5,1.1-5.8-.7.5-1.2,4.2.7-3.4-2.5.3-.8,4.2.6-3.4-2.4.5-1.2,4.7,3.6-.5,1.1Z"/>
    <path class="st1" d="M20.9,28.9l-4.6-3.3,2.2-3.1.9.6-1.6,2.2,1,.7,1.5-2.2.9.6-1.5,2.2,1,.7,1.6-2.2.9.6-2.2,3.1Z"/>
    <path class="st1" d="M24.3,24.4l-3.9-4.1,2.1-2c.8-.7,1.6-.6,2.1,0,.5.5.5,1.2.2,1.6.5-.3,1.2-.2,1.7.3.6.6.6,1.5-.1,2.2l-2.2,2ZM23.9,19.3c-.2-.3-.6-.3-.9,0l-1.1,1,.8.9,1.1-1c.3-.3.3-.6,0-.9ZM25.5,20.9c-.2-.3-.6-.3-1,0l-1.1,1,.9,1,1.1-1c.3-.3.3-.7,0-1Z"/>
    <path class="st1" d="M28.2,19.8v-1.1c.6.2,1.3.1,1.9-.2.5-.3.6-.8.5-1-.5-.9-2.8,1.4-4-.5-.5-.8-.2-1.9.9-2.5.7-.4,1.5-.6,2.2-.4v1.1c-.7-.1-1.3,0-1.8.3-.4.3-.5.6-.4.9.5.8,2.8-1.4,3.9.4.5.9.3,1.9-.9,2.7-.9.5-1.7.6-2.4.4Z"/>
    <path class="st1" d="M34,17.5l-2.1-5.3,1.1-.4,2.1,5.3-1.1.4Z"/>
    <path class="st1" d="M38.2,16.1l-1.1-4.5-1.6.4-.2-1,4.2-1,.2,1-1.5.4,1.1,4.5-1.1.3Z"/>
    <path class="st1" d="M42.4,15.3l-.2-5.7h3.9c0-.1,0,1,0,1h-2.7c0,0,0,1.3,0,1.3h2.6c0,0,0,1,0,1h-2.6c0,0,0,1.4,0,1.4h2.7c0,0,0,1,0,1h-3.9Z"/>
    <path class="st1" d="M54.6,16.9v-1s-2.3-.7-2.3-.7l-.6.8-1.3-.4,3.7-4.8,1.4.4.3,6-1.3-.4ZM54.4,12.2l-1.5,2.1,1.6.5v-2.6Z"/>
    <path class="st1" d="M60.3,19.8l1.2-3.8-2.8,2.8-1.1-.6,1.6-5.7,1.1.7-1.3,4,3-3,.8.5-1.3,4,2.9-3,1.1.7-4.3,4-1.1-.6Z"/>
    <path class="st1" d="M65.9,24.7l.4-.9-1.6-1.7-.9.4-.9-.9,5.5-2.5,1,1-2.5,5.5-.9-.9ZM68,20.5l-2.3,1.1,1.2,1.2,1.1-2.3Z"/>
    <path class="st1" d="M69.3,29.3l1.1-2-.5-.7-1.7,1.1-.6-1,4.8-3.1,1.4,2.1c.6,1,.3,2-.5,2.5-.8.5-1.6.3-2.1,0l-1.2,2.2-.7-1.1ZM72.6,27.3c.4-.3.5-.7.2-1.1l-.7-1-1.3.8.7,1c.3.4.7.5,1.1.3Z"/>
    <path class="st1" d="M70.8,31.9l5.3-2,.8,2c.6,1.6,0,3.1-1.6,3.7-1.6.6-3.1-.1-3.7-1.7l-.8-2ZM74.8,34.5c.9-.4,1.5-1.2,1.1-2.2l-.3-.9-3.3,1.3.3.9c.4,1,1.4,1.3,2.3,1Z"/>
  </g>
</svg>